<svg width="40" height="40" viewBox="0 0 40 40" fill="none" xmlns="http://www.w3.org/2000/svg">
<path d="M6 8H8.7265C9.9445 8 10.5535 8 11.012 8.315C11.4705 8.63 11.663 9.18 12.048 10.28L13 13" stroke="#977A58" stroke-linecap="round"/>
<path d="M29 30H13.8631C13.6308 30 13.5139 30 13.4242 29.99C13.2018 29.9642 12.987 29.8902 12.7938 29.7727C12.6006 29.6553 12.4332 29.497 12.3023 29.3081C12.1715 29.1192 12.0801 28.9038 12.0342 28.676C11.9882 28.4481 11.9886 28.2127 12.0354 27.985C12.0724 27.8375 12.1157 27.6918 12.1652 27.5483C12.2485 27.2917 12.2885 27.1633 12.335 27.0483C12.563 26.4801 12.9378 25.9886 13.4179 25.6285C13.898 25.2685 14.4646 25.0538 15.0548 25.0083C15.1733 25 15.3031 25 15.5626 25H24.1946" stroke="#977A58" stroke-linecap="round" stroke-linejoin="round"/>
<path d="M23.6464 25H18.7412C16.6766 25 15.6442 25 14.8377 24.4343C14.0296 23.8686 13.6231 22.8606 12.8102 20.8446L12.5376 20.1691C11.231 16.9291 10.5794 15.3126 11.2955 14.1554C12.015 13 13.6731 13 16.9863 13H25.503C29.2129 13 31.0663 13 31.7663 14.2806C32.4647 15.5611 31.5453 17.272 29.7049 20.6937L29.2484 21.5457C28.3419 23.2309 27.8886 24.0743 27.137 24.5371C26.3869 25 25.4723 25 23.6464 25Z" stroke="#977A58" stroke-linecap="round"/>
<path d="M27.5 36C28.3284 36 29 35.3284 29 34.5C29 33.6716 28.3284 33 27.5 33C26.6716 33 26 33.6716 26 34.5C26 35.3284 26.6716 36 27.5 36Z" fill="#977A58"/>
<path d="M14.5 36C15.3284 36 16 35.3284 16 34.5C16 33.6716 15.3284 33 14.5 33C13.6716 33 13 33.6716 13 34.5C13 35.3284 13.6716 36 14.5 36Z" fill="#977A58"/>
</svg>
