<svg aria-hidden="true" style="position: absolute; width: 0; height: 0; overflow: hidden;" version="1.1" xmlns="http://www.w3.org/2000/svg" xmlns:xlink="http://www.w3.org/1999/xlink">
<defs>
<symbol id="icon-cake" viewBox="0 0 32 32">
<path d="M27.449 14.978c0-0.002-0.001-0.004-0.001-0.007-0.003-0.062-0.017-0.12-0.041-0.173-0-0.001-0.001-0.002-0.001-0.003-0.026-0.057-0.063-0.107-0.108-0.149-0.001-0.001-0.001-0.002-0.002-0.003l-4.671-4.284c-0.108-0.911-0.744-1.662-1.594-1.937 0.109-0.658 0.546-1.983 2.294-2.159 0.263-0.026 0.454-0.261 0.428-0.524s-0.265-0.452-0.524-0.428c-2.201 0.222-2.99 1.869-3.156 3.011-0.804 0.084-1.486 0.581-1.834 1.274l-13.634 4.95c-0.004 0.001-0.007 0.004-0.011 0.005-0.017 0.006-0.032 0.015-0.048 0.023-0.012 0.007-0.026 0.013-0.037 0.020-0.013 0.009-0.025 0.019-0.038 0.029s-0.025 0.018-0.035 0.029c-0.011 0.011-0.020 0.022-0.030 0.034s-0.020 0.023-0.029 0.035c-0.009 0.013-0.016 0.027-0.024 0.040s-0.015 0.025-0.021 0.039c-0.006 0.014-0.011 0.029-0.015 0.043s-0.011 0.030-0.014 0.045c-0.003 0.013-0.004 0.027-0.006 0.041-0.003 0.018-0.005 0.036-0.005 0.054 0 0.004-0.001 0.007-0.001 0.011v9.745c0 0.264 0.214 0.478 0.478 0.478h22.205c0.264 0 0.478-0.214 0.478-0.478v-9.745c-0-0.006-0.002-0.012-0.002-0.018zM20.103 17.279c-1.024 0-1.857 0.837-1.857 1.867 0 0.5-0.403 0.907-0.899 0.907s-0.898-0.406-0.899-0.905c0-0 0-0.001 0-0.001 0-1.030-0.833-1.867-1.856-1.867s-1.857 0.837-1.857 1.867c0 0.5-0.404 0.907-0.9 0.907s-0.9-0.407-0.9-0.907c0 0 0-0 0-0s0-0 0-0c0-1.030-0.832-1.867-1.856-1.867s-1.856 0.837-1.856 1.867c0 0.5-0.404 0.907-0.901 0.907-0.529 0-1.029-0.441-1.029-0.907 0-0.074-0.019-0.144-0.049-0.207v-3.465h21.249v1.985c-0.243-0.12-0.534-0.18-0.878-0.18-0.001 0-0.002 0-0.003 0-1.023 0.002-1.856 0.839-1.856 1.867 0 0.5-0.403 0.907-0.899 0.907-0.497 0-0.9-0.407-0.9-0.907 0 0 0-0 0-0s0-0 0-0c-0-1.030-0.833-1.867-1.856-1.867zM20.316 12.961c0.971 0 1.805-0.599 2.152-1.447l3.275 3.003h-18.256l10.508-3.815c0.036 1.251 1.063 2.258 2.322 2.258zM20.316 9.266c0.755 0 1.369 0.614 1.369 1.369s-0.614 1.369-1.369 1.369-1.369-0.614-1.369-1.369c0-0.755 0.614-1.369 1.369-1.369zM5.246 24.263v-3.573c0.315 0.2 0.687 0.319 1.077 0.319 1.024 0 1.857-0.836 1.857-1.864 0-0.502 0.404-0.91 0.9-0.91s0.899 0.408 0.899 0.91c0 0 0 0 0 0s0 0 0 0c0 1.028 0.833 1.864 1.856 1.864s1.856-0.836 1.856-1.864c0-0.502 0.404-0.91 0.901-0.91 0.496 0 0.898 0.407 0.9 0.908 0 0 0 0.001 0 0.001 0 1.028 0.832 1.864 1.856 1.864s1.856-0.836 1.856-1.864c0-0.502 0.404-0.91 0.9-0.91s0.899 0.408 0.899 0.91c0 0 0 0 0 0s0 0 0 0c0 1.028 0.833 1.864 1.857 1.864s1.855-0.836 1.855-1.864c0-0.501 0.404-0.909 0.901-0.91 0.001 0 0.002 0 0.002 0 0.416 0 0.552 0.118 0.637 0.246 0.158 0.238 0.239 0.704 0.239 1.387 0 0.003 0.001 0.006 0.001 0.009v4.385h-21.248z"></path>
</symbol>
<symbol id="icon-facebook" viewBox="0 0 32 32">
<path d="M21.33 5.312h2.922v-5.088c-1.232-0.143-2.66-0.224-4.107-0.224-0.052 0-0.104 0-0.157 0l0.008-0c-4.211 0-7.098 2.65-7.098 7.52v4.48h-4.648v5.688h4.648v14.312h5.699v-14.31h4.459l0.709-5.688h-5.168v-3.922c0-1.643 0.443-2.768 2.733-2.768z"></path>
</symbol>
<symbol id="icon-instagram" viewBox="0 0 32 32">
<path d="M31.968 9.408c-0.074-1.701-0.349-2.869-0.742-3.882-0.424-1.111-1.054-2.059-1.85-2.837l-0.001-0.001c-0.78-0.792-1.724-1.419-2.778-1.827l-0.054-0.018c-1.019-0.394-2.181-0.667-3.882-0.742-1.712-0.082-2.256-0.101-6.602-0.101-4.344 0-4.888 0.019-6.595 0.094-1.699 0.074-2.869 0.349-3.88 0.742-1.112 0.424-2.060 1.054-2.839 1.85l-0.001 0.001c-0.791 0.78-1.418 1.724-1.825 2.778l-0.018 0.054c-0.395 1.019-0.669 2.181-0.744 3.882-0.082 1.712-0.101 2.256-0.101 6.602 0 4.344 0.019 4.888 0.094 6.595 0.075 1.701 0.35 2.869 0.744 3.882 0.426 1.11 1.055 2.057 1.849 2.837l0.001 0.001c0.8 0.813 1.77 1.443 2.832 1.843 1.019 0.395 2.182 0.67 3.882 0.744 1.707 0.075 2.251 0.094 6.595 0.094 4.346 0 4.89-0.019 6.595-0.094 1.701-0.074 2.869-0.349 3.882-0.742 2.157-0.85 3.833-2.526 4.664-4.628l0.019-0.055c0.394-1.019 0.669-2.182 0.744-3.882 0.075-1.707 0.093-2.251 0.093-6.595s-0.006-4.888-0.080-6.595zM29.088 22.474c-0.070 1.563-0.333 2.406-0.55 2.97-0.552 1.399-1.64 2.486-3.004 3.024l-0.036 0.012c-0.56 0.219-1.411 0.482-2.968 0.55-1.688 0.075-2.194 0.094-6.464 0.094-4.269 0-4.782-0.019-6.464-0.094-1.563-0.069-2.406-0.331-2.97-0.55-0.721-0.269-1.334-0.676-1.836-1.192l-0.001-0.001c-0.517-0.503-0.924-1.117-1.184-1.803l-0.011-0.034c-0.218-0.563-0.48-1.413-0.549-2.97-0.075-1.688-0.094-2.195-0.094-6.464 0-4.27 0.019-4.784 0.094-6.464 0.069-1.563 0.331-2.406 0.549-2.97 0.269-0.722 0.678-1.337 1.198-1.837l0.002-0.002c0.504-0.517 1.119-0.923 1.806-1.182l0.034-0.011c0.56-0.219 1.411-0.48 2.968-0.55 1.688-0.074 2.195-0.093 6.464-0.093 4.275 0 4.782 0.019 6.464 0.093 1.563 0.069 2.406 0.331 2.97 0.55 0.693 0.256 1.325 0.662 1.837 1.194 0.531 0.52 0.938 1.144 1.195 1.84 0.218 0.56 0.48 1.411 0.549 2.968 0.075 1.688 0.094 2.194 0.094 6.464 0 4.269-0.019 4.768-0.094 6.458z"></path>
<path d="M16.059 7.782c-4.539 0.002-8.218 3.682-8.219 8.221v0c0 0 0 0.001 0 0.002 0 4.541 3.681 8.222 8.222 8.222s8.222-3.681 8.222-8.222c0-4.541-3.681-8.222-8.222-8.222-0.001 0-0.001 0-0.002 0h0zM16.059 21.334c-2.945-0-5.332-2.388-5.332-5.333s2.388-5.333 5.333-5.333c0 0 0.001 0 0.001 0h-0c2.946 0 5.334 2.388 5.334 5.334s-2.388 5.334-5.334 5.334v0zM26.525 7.458c0 1.060-0.86 1.92-1.92 1.92s-1.92-0.86-1.92-1.92v0c0-1.060 0.86-1.92 1.92-1.92s1.92 0.86 1.92 1.92v0z"></path>
</symbol>
<symbol id="icon-phone" viewBox="0 0 32 32">
<path fill="none" stroke="#9da4bd" style="stroke: var(--color1, #9da4bd)" stroke-linejoin="round" stroke-linecap="round" stroke-miterlimit="4" stroke-width="1.3333" d="M26.667 21.337v3.217c0 0.003 0 0.006 0 0.009 0 1.186-0.961 2.147-2.147 2.147-0.068 0-0.134-0.003-0.2-0.009l0.008 0.001c-3.481-0.388-6.626-1.563-9.338-3.343l0.081 0.050c-2.608-1.675-4.761-3.828-6.386-6.353l-0.050-0.083c-1.736-2.644-2.912-5.804-3.285-9.205l-0.008-0.095c-0.006-0.058-0.009-0.125-0.009-0.193 0-1.185 0.96-2.145 2.145-2.145h3.219c0.006-0 0.013-0 0.020-0 1.079 0 1.972 0.797 2.123 1.834l0.001 0.012c0.136 1.029 0.387 2.040 0.751 3.013 0.295 0.784 0.107 1.668-0.483 2.264l-1.363 1.361c1.555 2.7 3.736 4.881 6.353 6.392l0.083 0.044 1.363-1.361c0.388-0.383 0.92-0.619 1.509-0.619 0.271 0 0.53 0.050 0.769 0.142l-0.015-0.005c0.973 0.363 1.984 0.613 3.013 0.751 1.050 0.151 1.847 1.045 1.847 2.125 0 0.019-0 0.037-0.001 0.056l0-0.003z"></path>
</symbol>
</defs>
</svg>
