<svg width="153" height="49" viewBox="0 0 153 49" fill="none" xmlns="http://www.w3.org/2000/svg">
<path d="M47.3154 33.3371C57.6191 38.5108 48.342 56.3298 90.0912 43.3691C131.84 30.4083 84.9108 1.43681 70.5426 1.01909C56.1744 0.601379 33.8314 7.05274 32 19.0644C39.2235 31.8575 37.0117 28.1634 47.3154 33.3371Z" fill="#F7D6D8"/>
<path d="M18.0712 25.2584C17.9514 25.5731 17.8316 25.9369 17.7118 26.3499C17.592 26.763 17.4622 27.2055 17.3224 27.6775C17.2226 28.0512 17.0928 28.5921 16.9331 29.3001C16.7734 29.9885 16.6336 30.7063 16.5138 31.4537C15.4955 31.4144 14.3475 31.3947 13.0696 31.3947C11.7918 31.375 10.6537 31.3652 9.65538 31.3652C9.21612 31.3652 8.64709 31.3652 7.94827 31.3652C7.26941 31.3652 6.53066 31.375 5.73201 31.3947C4.93336 31.3947 4.12472 31.4045 3.30611 31.4242C2.48749 31.4242 1.71879 31.434 1 31.4537L1.14975 30.8637C1.8286 30.8243 2.35771 30.7457 2.73707 30.6277C3.11643 30.5097 3.40594 30.2737 3.6056 29.9196C3.82523 29.5656 4.03487 29.0346 4.23454 28.3266L8.21781 13.6938C8.41747 12.9661 8.49734 12.4351 8.45741 12.1007C8.43744 11.7467 8.26773 11.5107 7.94827 11.3927C7.64877 11.255 7.1596 11.1763 6.48074 11.1567L6.63049 10.5666C7.04978 10.5863 7.59886 10.606 8.27771 10.6256C8.95656 10.6453 9.68533 10.6551 10.464 10.6551C11.1628 10.6551 11.8517 10.6453 12.5305 10.6256C13.2293 10.606 13.8084 10.5863 14.2676 10.5666L14.1178 11.1567C13.439 11.1763 12.9099 11.255 12.5305 11.3927C12.1512 11.5107 11.8517 11.7467 11.632 12.1007C11.4124 12.4351 11.2028 12.9661 11.0031 13.6938L7.01983 28.3266C6.82017 29.0346 6.73032 29.5656 6.75029 29.9196C6.79022 30.2737 6.96992 30.5097 7.28938 30.6277C7.60884 30.726 8.108 30.7752 8.78685 30.7752H10.9732C12.231 30.7752 13.2293 30.5982 13.9681 30.2442C14.7268 29.8901 15.3558 29.3099 15.8549 28.5036C16.374 27.6972 16.8832 26.6155 17.3823 25.2584H18.0712ZM24.7675 30.2737L22.7609 32.4273L20.4847 18.8566C20.3849 18.2469 20.2651 17.824 20.1253 17.588C19.9855 17.352 19.7859 17.234 19.5263 17.234C19.3067 17.234 19.0571 17.411 18.7776 17.765C18.4981 18.0994 18.1586 18.8271 17.7593 19.9481L17.37 21.0397H16.8009L17.5497 18.8861C17.9689 17.6863 18.4881 16.8898 19.107 16.4964C19.726 16.0834 20.3549 15.8769 20.9938 15.8769C21.6128 15.8769 22.092 16.0736 22.4314 16.4669C22.7708 16.8406 23.0104 17.5487 23.1502 18.591L24.7675 30.2737ZM18.2085 35.6134C19.0671 35.1611 19.9756 34.5415 20.9339 33.7548C21.9123 32.9878 22.9206 31.9454 23.9588 30.6277C25.1368 29.1526 26.205 27.5005 27.1634 25.6714C28.1418 23.8227 28.8206 21.9641 29.2 20.0956C28.8805 19.9186 28.5311 19.7023 28.1517 19.4466C27.7924 19.1712 27.4929 18.8566 27.2533 18.5025C27.0137 18.1289 26.9039 17.7158 26.9238 17.2635C26.9638 16.8111 27.1235 16.4669 27.403 16.2309C27.6825 15.9949 28.0319 15.8769 28.4512 15.8769C28.9903 15.8769 29.3797 16.0834 29.6193 16.4964C29.8788 16.8898 30.0086 17.4798 30.0086 18.2665C30.0086 19.2696 29.8389 20.3513 29.4995 21.5117C29.16 22.6524 28.7008 23.8128 28.1218 24.9929C27.5627 26.1729 26.9338 27.3137 26.235 28.4151C25.5362 29.4968 24.8274 30.4802 24.1086 31.3652C23.7891 31.7586 23.3499 32.2503 22.7908 32.8403C22.2317 33.4303 21.5629 34.0302 20.7842 34.6399C20.0255 35.2692 19.1669 35.8101 18.2085 36.2625C17.6096 36.5378 17.0904 36.7247 16.6512 36.823C16.2319 36.941 15.8825 37 15.6029 37C15.2036 37 14.8542 36.8918 14.5547 36.6755C14.2552 36.4788 14.1055 36.1838 14.1055 35.7904C14.1055 35.3577 14.2752 35.0234 14.6146 34.7874C14.9341 34.571 15.3034 34.4629 15.7227 34.4629C16.182 34.4629 16.6112 34.5809 17.0106 34.8169C17.4299 35.0529 17.8292 35.3184 18.2085 35.6134ZM32.4777 31.0112C32.6375 31.0899 32.8072 31.1587 32.9869 31.2177C33.1865 31.257 33.4761 31.2767 33.8554 31.2767C34.7339 31.2767 35.4527 31.021 36.0118 30.5097C36.5908 29.9786 36.8803 29.2214 36.8803 28.238C36.8803 27.6283 36.7605 27.0285 36.5209 26.4385C36.3013 25.8288 35.902 25.1306 35.3229 24.3438C34.8637 23.7145 34.4245 23.0753 34.0052 22.4262C33.5859 21.7575 33.3762 20.9708 33.3762 20.0661C33.3762 19.2204 33.5859 18.4927 34.0052 17.883C34.4245 17.2536 34.9835 16.762 35.6823 16.4079C36.4011 16.0539 37.1798 15.8769 38.0184 15.8769C38.5974 15.8769 39.1664 15.9457 39.7255 16.0834C40.2846 16.2211 40.7438 16.4768 41.1032 16.8505C41.4825 17.2045 41.6722 17.7355 41.6722 18.4435C41.6722 18.6206 41.6223 18.8369 41.5225 19.0926C41.4426 19.3286 41.3028 19.5351 41.1032 19.7121C40.9035 19.8891 40.634 19.9776 40.2945 19.9776C39.9751 19.9776 39.6956 19.8694 39.456 19.6531C39.2164 19.4171 39.0966 19.1122 39.0966 18.7386C39.0966 18.3845 39.1664 18.0502 39.3062 17.7355C39.4659 17.4012 39.6756 17.0766 39.9351 16.762C39.5558 16.5259 39.0566 16.4079 38.4377 16.4079C37.6989 16.4079 37.08 16.6538 36.5808 17.1455C36.0817 17.6372 35.8321 18.3255 35.8321 19.2106C35.8321 19.6629 35.902 20.0661 36.0417 20.4201C36.1815 20.7545 36.3811 21.1085 36.6407 21.4822C36.9202 21.8559 37.2497 22.3279 37.629 22.8983C38.1282 23.6456 38.5475 24.3635 38.8869 25.0519C39.2263 25.7403 39.3961 26.468 39.3961 27.235C39.3961 28.1397 39.1565 28.9461 38.6773 29.6541C38.218 30.3425 37.5991 30.8834 36.8204 31.2767C36.0417 31.6701 35.1832 31.8667 34.2448 31.8667C33.5659 31.8667 32.917 31.7684 32.298 31.5717C31.6791 31.375 31.17 31.0702 30.7706 30.6572C30.3913 30.2245 30.2016 29.6541 30.2016 28.9461C30.2016 28.6707 30.2914 28.3856 30.4711 28.0905C30.6309 27.7759 30.9304 27.6185 31.3696 27.6185C31.8488 27.6185 32.1882 27.8152 32.3879 28.2085C32.5876 28.5822 32.6874 29.0051 32.6874 29.4771C32.6874 29.7918 32.6574 30.077 32.5975 30.3327C32.5576 30.5687 32.5177 30.7948 32.4777 31.0112ZM51.2219 16.4669C50.583 16.4669 49.964 16.7226 49.365 17.234C48.786 17.7257 48.2469 18.4042 47.7478 19.2696C47.2686 20.1153 46.8393 21.0692 46.4599 22.1312C46.1005 23.1933 45.821 24.2947 45.6213 25.4354C45.4217 26.5761 45.3218 27.6677 45.3218 28.7101C45.3218 29.5951 45.4616 30.2442 45.7411 30.6572C46.0406 31.0702 46.4699 31.2767 47.029 31.2767C47.6679 31.2767 48.2769 31.0309 48.8559 30.5392C49.4549 30.0278 50.0039 29.3493 50.5031 28.5036C51.0023 27.6382 51.4315 26.6745 51.7909 25.6124C52.1503 24.5504 52.4298 23.4588 52.6295 22.3377C52.8292 21.197 52.929 20.0956 52.929 19.0336C52.929 18.1289 52.7892 17.4798 52.5097 17.0865C52.2302 16.6734 51.8009 16.4669 51.2219 16.4669ZM42.7462 27.235C42.7462 26.3696 42.866 25.4256 43.1056 24.4028C43.3452 23.3801 43.7046 22.3672 44.1838 21.3642C44.663 20.3611 45.242 19.4466 45.9208 18.6206C46.6197 17.7945 47.4283 17.1356 48.3467 16.6439C49.2652 16.1326 50.2835 15.8769 51.4016 15.8769C52.6395 15.8769 53.6278 16.2604 54.3666 17.0275C55.1253 17.7748 55.5047 18.9352 55.5047 20.5086C55.5047 21.374 55.3849 22.3181 55.1453 23.3408C54.9057 24.3635 54.5463 25.3764 54.0671 26.3795C53.5879 27.3825 52.9989 28.2971 52.3001 29.1231C51.6212 29.9491 50.8226 30.6178 49.9041 31.1292C48.9857 31.6209 47.9674 31.8667 46.8493 31.8667C45.6114 31.8667 44.613 31.4832 43.8543 30.7162C43.1156 29.9491 42.7462 28.7887 42.7462 27.235ZM70.9371 20.2726C70.378 19.9973 69.8589 19.5941 69.3797 19.0631C68.9005 18.532 68.6909 17.8732 68.7508 17.0865C68.7907 16.6341 68.9504 16.3194 69.23 16.1424C69.5295 15.9457 69.809 15.8474 70.0686 15.8474C70.7674 15.8474 71.2466 16.2408 71.5061 17.0275C71.7657 17.7945 71.8256 18.7877 71.6858 20.0071C71.5461 21.1675 71.3065 22.3181 70.967 23.4588C70.6276 24.5995 70.1884 25.6714 69.6493 26.6745C69.1301 27.6775 68.5012 28.5724 67.7625 29.3591C67.0237 30.1458 66.1951 30.7653 65.2766 31.2177C64.3582 31.6504 63.3399 31.8667 62.2218 31.8667C61.3233 31.8667 60.6145 31.6897 60.0954 31.3357C59.5962 30.962 59.2468 30.4998 59.0472 29.9491C58.8475 29.3788 58.7676 28.7986 58.8076 28.2085C58.8874 27.1072 59.2269 25.9271 59.8259 24.6684C60.4448 23.39 61.2534 22.1017 62.2518 20.8037C63.27 19.4859 64.4381 18.2174 65.7558 16.998C65.4364 17.116 65.0969 17.2831 64.7376 17.4995C64.3782 17.6962 64.0288 17.9027 63.6893 18.119C63.3499 18.3157 63.0205 18.4927 62.701 18.6501C62.3815 18.7877 62.0821 18.8566 61.8025 18.8566C61.4232 18.8566 61.0937 18.7386 60.8142 18.5025C60.5546 18.2469 60.2551 18.119 59.9157 18.119C59.5962 18.119 59.3267 18.2567 59.1071 18.532C58.9074 18.7877 58.6878 19.2597 58.4482 19.9481L58.1187 21.0397H57.5497L58.2086 18.8861C58.548 17.706 58.9673 16.9095 59.4665 16.4964C59.9856 16.0834 60.5047 15.8769 61.0238 15.8769C61.4032 15.8769 61.7226 15.9752 61.9822 16.1719C62.2418 16.3686 62.5013 16.5653 62.7609 16.762C63.0404 16.939 63.3699 17.0275 63.7492 17.0275C64.2284 17.0275 64.6777 16.9586 65.097 16.821C65.5362 16.6636 65.9256 16.4276 66.265 16.1129L66.5645 15.5524L67.1934 15.8474C66.3948 16.8111 65.676 17.7748 65.0371 18.7386C64.4181 19.7023 63.879 20.6758 63.4198 21.6592C62.9805 22.6426 62.6211 23.6358 62.3416 24.6389C62.082 25.6419 61.9024 26.6646 61.8025 27.707C61.7227 28.8477 61.8025 29.664 62.0421 30.1556C62.3017 30.6473 62.6511 30.8932 63.0903 30.8932C64.0288 30.8932 64.8973 30.6473 65.696 30.1556C66.4946 29.664 67.2034 29.0149 67.8224 28.2085C68.4613 27.4022 69.0004 26.527 69.4396 25.5829C69.8988 24.6192 70.2483 23.6751 70.4879 22.7508C70.7474 21.8264 70.8972 21.0003 70.9371 20.2726ZM76.6634 30.9227C77.1427 30.9227 77.6918 30.6277 78.3107 30.0376C78.9297 29.4279 79.5586 28.6117 80.1975 27.589C80.8365 26.5663 81.4255 25.4059 81.9646 24.1078C82.5037 22.8098 82.9329 21.4625 83.2524 20.0661L82.7433 23.2523C81.9845 25.3371 81.2258 27.0187 80.4671 28.2971C79.7084 29.5558 78.9397 30.4703 78.161 31.0407C77.3823 31.5914 76.5936 31.8667 75.795 31.8667C74.8566 31.8667 74.1478 31.5324 73.6686 30.8637C73.2094 30.195 72.9797 29.3394 72.9797 28.2971C72.9797 27.353 73.1395 26.3303 73.4589 25.2289C73.7784 24.1078 74.2177 22.9966 74.7767 21.8952C75.3557 20.7938 76.0146 19.7908 76.7534 18.8861C77.4921 17.9813 78.2908 17.2536 79.1493 16.703C80.0278 16.1523 80.9163 15.8769 81.8148 15.8769C82.5136 15.8769 83.0428 16.2211 83.4021 16.9095C83.7815 17.5782 83.8614 18.5222 83.6417 19.7416L83.3123 19.9186C83.4521 18.8762 83.3822 18.0404 83.1027 17.411C82.8231 16.762 82.3639 16.4374 81.725 16.4374C81.2059 16.4374 80.6568 16.6931 80.0778 17.2045C79.5187 17.6962 78.9696 18.3747 78.4305 19.2401C77.9114 20.0858 77.4322 21.0397 76.993 22.1017C76.5737 23.1638 76.2342 24.2652 75.9747 25.4059C75.7351 26.527 75.6153 27.6087 75.6153 28.6511C75.6153 29.4968 75.7051 30.0868 75.8848 30.4212C76.0845 30.7555 76.3441 30.9227 76.6634 30.9227ZM84.2108 16.2899C84.69 16.2703 85.1692 16.2309 85.6484 16.1719C86.1275 16.1129 86.5668 16.0146 86.9661 15.8769L83.2225 28.9166C83.1825 29.0936 83.1226 29.3296 83.0428 29.6246C82.9829 29.9 82.9829 30.1556 83.0428 30.3917C83.1226 30.6277 83.3323 30.7457 83.6717 30.7457C84.071 30.7457 84.4604 30.5293 84.8397 30.0966C85.2191 29.664 85.5984 28.8772 85.9778 27.7365L86.3372 26.645H86.9062L86.1575 28.7986C85.878 29.5853 85.5385 30.2048 85.1392 30.6572C84.7599 31.0899 84.3605 31.3947 83.9412 31.5717C83.5219 31.7684 83.1126 31.8667 82.7133 31.8667C81.9346 31.8667 81.3855 31.6111 81.0661 31.0997C80.8065 30.6473 80.7366 30.1261 80.8564 29.5361C80.9762 28.9264 81.116 28.3167 81.2757 27.707L84.2108 16.2899ZM109.71 10.5666C109.411 11.3337 109.101 12.2679 108.782 13.3693C108.463 14.451 108.133 15.7786 107.794 17.352H107.135C107.294 16.3293 107.344 15.4737 107.285 14.7854C107.245 14.0773 107.095 13.4775 106.835 12.9858C106.456 12.2384 105.907 11.668 105.188 11.2747C104.489 10.8813 103.731 10.6846 102.912 10.6846C101.874 10.6846 100.865 10.9895 99.887 11.5992C98.909 12.1892 98.0006 12.9956 97.162 14.0183C96.3234 15.041 95.5847 16.2014 94.9457 17.4995C94.3068 18.7779 93.8077 20.1153 93.4483 21.5117C93.0889 22.8884 92.9092 24.2357 92.9092 25.5534C92.9092 27.4808 93.2886 28.9264 94.0473 29.8901C94.826 30.8538 95.8742 31.3357 97.192 31.3357C98.0305 31.3357 98.939 31.139 99.917 30.7457C100.915 30.3523 101.784 29.782 102.523 29.0346C103.062 28.5036 103.521 27.884 103.9 27.176C104.3 26.4483 104.739 25.5141 105.218 24.3733H105.877C105.378 26.1631 104.988 27.6087 104.709 28.7101C104.449 29.7918 104.25 30.7063 104.11 31.4537H103.451C103.511 31.0407 103.541 30.7063 103.541 30.4507C103.541 29.9983 103.461 29.7525 103.301 29.7131C103.142 29.6541 102.892 29.7328 102.553 29.9491C102.013 30.3032 101.474 30.6277 100.935 30.9227C100.396 31.198 99.8075 31.4242 99.1686 31.6012C98.5297 31.7782 97.771 31.8667 96.8925 31.8667C94.6962 31.8667 92.9791 31.2865 91.7412 30.1261C90.5232 28.9461 89.9142 27.2153 89.9142 24.9339C89.9142 23.5965 90.1239 22.2394 90.5432 20.8627C90.9625 19.4663 91.5615 18.1289 92.3401 16.8505C93.1188 15.5721 94.0473 14.4313 95.1254 13.4283C96.2036 12.4252 97.4016 11.6287 98.7194 11.0387C100.037 10.4486 101.454 10.1536 102.972 10.1536C103.83 10.1536 104.529 10.252 105.068 10.4486C105.607 10.6256 106.057 10.8616 106.416 11.1567C106.795 11.432 107.135 11.7369 107.434 12.0712C107.714 12.3466 107.973 12.3859 108.213 12.1892C108.473 11.9729 108.762 11.432 109.081 10.5666H109.71ZM112.404 30.9227C112.883 30.9227 113.432 30.6277 114.051 30.0376C114.67 29.4279 115.299 28.6117 115.938 27.589C116.577 26.5663 117.166 25.4059 117.705 24.1078C118.244 22.8098 118.673 21.4625 118.993 20.0661L118.484 23.2523C117.725 25.3371 116.966 27.0187 116.207 28.2971C115.449 29.5558 114.68 30.4703 113.901 31.0407C113.123 31.5914 112.334 31.8667 111.535 31.8667C110.597 31.8667 109.888 31.5324 109.409 30.8637C108.95 30.195 108.72 29.3394 108.72 28.2971C108.72 27.353 108.88 26.3303 109.199 25.2289C109.519 24.1078 109.958 22.9966 110.517 21.8952C111.096 20.7938 111.755 19.7908 112.494 18.8861C113.232 17.9813 114.031 17.2536 114.89 16.703C115.768 16.1523 116.657 15.8769 117.555 15.8769C118.254 15.8769 118.783 16.2211 119.142 16.9095C119.522 17.5782 119.602 18.5222 119.382 19.7416L119.053 19.9186C119.192 18.8762 119.123 18.0404 118.843 17.411C118.563 16.762 118.104 16.4374 117.465 16.4374C116.946 16.4374 116.397 16.6931 115.818 17.2045C115.259 17.6962 114.71 18.3747 114.171 19.2401C113.652 20.0858 113.173 21.0397 112.733 22.1017C112.314 23.1638 111.975 24.2652 111.715 25.4059C111.475 26.527 111.356 27.6087 111.356 28.6511C111.356 29.4968 111.445 30.0868 111.625 30.4212C111.825 30.7555 112.084 30.9227 112.404 30.9227ZM119.951 16.2899C120.43 16.2703 120.91 16.2309 121.389 16.1719C121.868 16.1129 122.307 16.0146 122.706 15.8769L118.963 28.9166C118.923 29.0936 118.863 29.3296 118.783 29.6246C118.723 29.9 118.723 30.1556 118.783 30.3917C118.863 30.6277 119.073 30.7457 119.412 30.7457C119.811 30.7457 120.201 30.5293 120.58 30.0966C120.959 29.664 121.339 28.8772 121.718 27.7365L122.078 26.645H122.647L121.898 28.7986C121.618 29.5853 121.279 30.2048 120.88 30.6572C120.5 31.0899 120.101 31.3947 119.682 31.5717C119.262 31.7684 118.853 31.8667 118.454 31.8667C117.675 31.8667 117.126 31.6111 116.806 31.0997C116.547 30.6473 116.477 30.1261 116.597 29.5361C116.717 28.9264 116.856 28.3167 117.016 27.707L119.951 16.2899ZM126.463 31.4537H123.858L129.788 11.7762C129.987 11.1075 129.957 10.6158 129.698 10.3011C129.458 9.98644 128.849 9.8291 127.871 9.8291L128.05 9.20956C129.149 9.1899 130.137 9.08172 131.015 8.88505C131.894 8.6687 132.703 8.37369 133.441 8L126.463 31.4537ZM134.19 29.5656C134.11 29.9983 134.11 30.313 134.19 30.5097C134.27 30.6867 134.47 30.7752 134.789 30.7752C135.188 30.7752 135.558 30.5588 135.897 30.1261C136.257 29.6738 136.626 28.8871 137.005 27.766L137.365 26.6745H137.934L137.215 28.8281C136.955 29.6148 136.636 30.2343 136.257 30.6867C135.897 31.1194 135.488 31.4242 135.029 31.6012C134.589 31.7782 134.13 31.8667 133.651 31.8667C133.012 31.8667 132.493 31.6504 132.094 31.2177C131.694 30.7653 131.604 30.0475 131.824 29.0641L132.363 26.527C132.603 25.3862 132.473 24.5504 131.974 24.0193C131.495 23.4686 130.416 23.1343 128.739 23.0163V22.8983C129.498 22.8393 130.267 22.8393 131.045 22.8983C131.844 22.9573 132.553 23.1244 133.172 23.3998C133.791 23.6555 134.26 24.0488 134.579 24.5799C134.899 25.0912 134.969 25.7698 134.789 26.6155L134.19 29.5656ZM136.826 16.4964C136.586 16.4964 136.376 16.5358 136.197 16.6144C136.037 16.6931 135.877 16.7915 135.717 16.9095C135.338 17.2045 135.019 17.6077 134.759 18.119C134.5 18.6107 134.24 19.1417 133.98 19.7121C133.721 20.2825 133.401 20.8233 133.022 21.3347C132.643 21.8264 132.144 22.2296 131.525 22.5443C130.906 22.8589 130.097 23.0064 129.099 22.9868L128.799 23.0163L128.859 22.6918C129.837 22.6328 130.616 22.4361 131.195 22.1017C131.794 21.7674 132.263 21.3544 132.603 20.8627C132.962 20.371 133.262 19.8596 133.501 19.3286C133.741 18.7779 133.99 18.2567 134.25 17.765C134.51 17.2733 134.849 16.8701 135.268 16.5554C135.628 16.2801 135.947 16.1031 136.227 16.0244C136.526 15.9261 136.806 15.8769 137.065 15.8769C137.764 15.8769 138.243 16.0539 138.503 16.4079C138.762 16.7423 138.872 17.1455 138.832 17.6175C138.812 17.8535 138.742 18.119 138.623 18.414C138.503 18.7091 138.313 18.9647 138.054 19.1811C137.814 19.3974 137.494 19.5056 137.095 19.5056C136.656 19.5056 136.346 19.3778 136.167 19.1221C135.987 18.8467 135.907 18.5517 135.927 18.237C135.947 17.9617 136.047 17.6667 136.227 17.352C136.406 17.0176 136.626 16.7325 136.886 16.4964C136.866 16.4964 136.856 16.4964 136.856 16.4964C136.856 16.4964 136.846 16.4964 136.826 16.4964ZM142.057 24.7569C143.175 24.3832 144.183 24.0193 145.082 23.6653C146 23.2916 146.729 22.8983 147.268 22.4852C147.987 21.9149 148.556 21.2265 148.975 20.4201C149.394 19.6138 149.604 18.7287 149.604 17.765C149.604 17.1946 149.564 16.8308 149.484 16.6734C149.404 16.5161 149.285 16.4374 149.125 16.4374C148.626 16.4374 148.087 16.6538 147.508 17.0865C146.929 17.5192 146.36 18.119 145.8 18.8861C145.241 19.6334 144.722 20.489 144.243 21.4527C143.784 22.4164 143.414 23.449 143.135 24.5504C142.855 25.6321 142.716 26.7138 142.716 27.7955C142.716 28.7986 142.905 29.5263 143.285 29.9786C143.664 30.4113 144.163 30.6277 144.782 30.6277C145.501 30.6277 146.26 30.4113 147.058 29.9786C147.857 29.5459 148.636 28.7789 149.394 27.6775L149.874 27.9135C149.494 28.5626 148.995 29.1919 148.376 29.8016C147.757 30.4113 147.058 30.9129 146.28 31.3062C145.521 31.6799 144.712 31.8667 143.854 31.8667C143.055 31.8667 142.356 31.7094 141.757 31.3947C141.158 31.08 140.699 30.6178 140.38 30.0081C140.06 29.3788 139.9 28.6117 139.9 27.707C139.9 26.8613 140.06 25.9173 140.38 24.8749C140.699 23.8128 141.148 22.7606 141.727 21.7182C142.326 20.6562 143.035 19.6826 143.854 18.7976C144.672 17.9125 145.581 17.2045 146.579 16.6734C147.577 16.1424 148.646 15.8769 149.784 15.8769C150.403 15.8769 150.922 16.0441 151.341 16.3784C151.78 16.6931 152 17.175 152 17.824C152 18.6107 151.76 19.3483 151.281 20.0366C150.822 20.7053 150.203 21.3249 149.424 21.8952C148.666 22.4459 147.837 22.9376 146.939 23.3703C146.04 23.803 145.162 24.1767 144.303 24.4914C143.444 24.806 142.686 25.0617 142.027 25.2584L142.057 24.7569Z" fill="#977A58"/>
</svg>
